<svg id="Layer_1" xmlns="http://www.w3.org/2000/svg" viewBox="333 183.9 368.3 358.9"><style>.st0{fill:#68579b}</style><path class="st0" d="M666.6 398.6c-11.4-19.3-32.3-30.3-54.7-28.7l-84.3 5c.1-1.8-.7-3.7-1.2-5.4 4.7-1.6 8.8-5.5 11.3-9.8 2.9-5 3.5-10.4 2.9-16 4.9-2 9.4-5.6 12-10.3 1.4-2.5 2.3-5.8 2.9-8.4l1.4.8c11.5 6.5 23.3 1.8 27.8-.4l.6-.2c1.3-.7 2.8-.8 3.7-.7l2.2 1.2c5 2.9 11.3 1.1 14.1-3.9 2.9-5 1.1-11.3-3.9-14.1l-28.4-16 4.9-8.6 9.9-.6c3.9-.2 7.5-2.4 9.7-5.4.8-1.4 1.8-3.2 3.1-5.4.6-1.1 1.2-2.2 1.6-2.9 3.1-5.4.8-12.4-4.6-15.4l-33.9-19.2c-5.4-3.1-12.2-1.2-15.6 4-.6 1.1-1 1.8-1.6 2.9-1.2 2.2-2.2 4-2.7 5.6-1.5 3.4-1.5 7.7.3 11.1l4.5 8.8-4.9 8.6-28.1-15.9c-5-2.9-11.3-1.1-14.1 3.9-2.9 5-1.1 11.3 3.9 14.1l2.2 1.2c.5.8 1 2.5 1.3 3.6l.2.6c.8 5.2 2.4 17.6 13.9 24.1l1.4.8c-2.5 1.9-4.3 4.2-5.7 6.7-2.9 5-3.5 10.4-2.9 16-4.9 2-9.4 5.6-12 10.3-2.7 4.7-3.7 9.8-2.6 14.7-1.7.5-3.4.9-4.7 1.6l-4.4-8.2c-1.2-2.1-3.6-3-5.7-1.8s-3 3.6-1.8 5.7l5.1 9.5c-1 .9-1.8 2.3-2.4 3.4-2.2 4-3.2 8.2-2.7 12.3l-.2.4c-.2.4-30.5 54.6-78 51.9-5.5-.3-10.3 2.2-13 6.9-3.9 6.8-1.5 15.3 5.3 19.2l94 53.4c6.8 3.9 15.3 1.5 19.2-5.3 2.7-4.7 2.6-10.4-.7-14.7-26.7-39.4 4.2-92.9 4.6-93.6l.2-.4c3.8-1.7 6.9-4.6 9.2-8.6.6-1.1 1.2-2.2 1.5-3.4l86-5.5c19.2-1 37.2 8.3 46.9 24.7s9.6 35.9-.5 52.1l-1 1.8C610.9 529 514 555.4 436.8 516.8c-41.9-20.9-72.6-57.4-87-101.8-13.8-44.5-9.5-91.6 12.6-132.9 21.4-40.2 57.6-69.7 102.3-82.9 44.3-13.4 90.6-8.6 131 13.4 32.5 17.5 57.8 44.2 73.4 77.9-1.5 1-2.7 2.3-3.7 4.1-1.6 2.9-2.2 6.4-1.3 9.8l12.8 46.3c.9 3.4 3.2 6.1 6.1 7.7 1.8 1 3.4 1.5 5.3 1.6l2.5 9c-.6 1.1-.7 2-.4 3.1.8 2.8 3.7 4.5 6.5 3.7 2.8-.8 4.5-3.7 3.7-6.5-.3-1.1-1.2-2.1-1.9-2.5l-2.7-8.7c1.5-1 2.9-2.6 3.7-4.1 1.6-2.9 2.2-6.4 1.3-9.8l-13-46.3c-1.4-5.1-6.4-8.9-11.4-9.3-16.5-35.6-43.2-64-77.6-83.1-42.2-23-90.9-27.8-137.5-13.7-46.5 13.1-84.5 44-107.1 86.4-23 43.1-27.9 92.8-12.9 139.4 13.8 43.6 43.3 79.8 82.9 102.3 2.9 1.6 5.4 3.1 8.5 4.3 80.8 40.6 182.8 12.8 232-63.1l1-1.8c11.8-19.1 12.3-41.7.7-60.7zm-167.1-11c-6.1-3.5-8.3-11.4-4.8-17.5 3.5-6.1 11.4-8.3 17.5-4.8 6.1 3.5 8.3 11.4 4.8 17.5-3.1 6.3-11 8.5-17.5 4.8zM552 249.8c.8-1.4 1.3-3.1 2.5-5.2.6-1.1 1-1.8 1.4-2.5.8-1.4 2.5-1.9 4-1.1l33.9 19.2c1.4.8 1.9 2.5 1.1 4-.4.7-1 1.8-1.4 2.5-1.2 2.2-2 3.6-2.9 5-.6 1.1-1.7 1.4-2.9 1.7l-11.1.3-19.1-10.8-5.4-9.7c-.4-1.2-.4-2.1-.1-3.4zm4.2 21.9l14 8-4.1 7.2-14-8 4.1-7.2zm-38.1 9.3l-.2-.6c-.4-3.5-2.1-6.4-2.7-7.7l-.5-.8-4-2.2c-.7-.4-1-1.5-.6-2.3.4-.7 1.5-1 2.3-.6l31.3 17.8 21.6 12.3 31.7 18c.7.4 1 1.5.6 2.3-.4.7-1.5 1-2.3.6l-4-2.2h-.9c-1.8-.1-5 .5-8.1 1.6l-.6.2c-4.4 1.8-12.5 5.3-20.4.8l-33.1-18.8c-8.4-4.6-9.4-13.7-10.1-18.4zm-6.7 63.8c1.8-3.2 4.6-5.5 7.4-6.3 4.2-1.5 6.6-5.8 5.7-10.1-.6-3.2 0-6.7 1.6-9.6 1.6-2.9 4.4-5.1 6.8-6.1l13.7 7.8c.6 3.2-.1 6.1-1.8 9-1.8 3.2-4.6 5.5-7.4 6.3-4.2 1.5-6.6 5.8-5.7 10.1.6 3.2 0 6.7-1.6 9.6-1.8 3.2-4.8 5.9-8.1 6.8-1.4-1.7-3.3-3.3-5.5-4.6-2.2-1.2-4.2-1.9-6.7-2.4-.7-3.2-.3-7.2 1.6-10.5zm-23.3 43.5c1 1.5 2.1 3.1 3.7 4.5l-23.7 41.8c-2-.7-3.7-.2-5-.4-1.8-.1-3 .2-5.1-1-2.2-1.2-2.7-2-3.5-3.9-.7-1.3-1.5-2.3-2.6-3.8 18-11.8 30.4-28.6 36.2-37.2zm15.6 106c1.4 1.7 1.1 4 .1 5.8-1.4 2.5-4.8 3.5-7.3 2l-93.6-53.2c-2.5-1.4-3.5-4.8-2-7.3 1-1.8 3.1-3 5-2.9 14.8.8 27.4-3 38.9-8.9 1.4.8 1.8 1.9 2.4 3.3 1.2 2.1 2.5 4.8 6.9 7.2 4.3 2.5 7.3 2.2 9.7 2.2l-7.8 13.7c-1.2 2.2-.2 4.6 1.6 5.6 2.2 1.2 4.6.2 5.6-1.6l8-14c.4.2.2.6.5.8 1.2 2.1 2.5 4.8 6.9 7.2 4.3 2.5 7.3 2.2 9.7 2.2 1.5-.1 2.4-.1 3.5.6.2 12.6 3.8 25.5 11.9 37.3zm-12.4-46.1c-1.3-.3-2.8-.1-3.7-.2-1.8-.1-3 .2-5.1-1-2.2-1.2-2.7-2-3.5-3.9-.7-1.3-1.7-2.9-3.5-4.8l23.5-41.4c2 .7 3.9.8 5.7.9-4.4 9.3-12.5 28.5-13.4 50.4zm186.9-151.5c1.1.6 1.6 1.4 1.9 2.5l12.8 46.3c.3 1.1.1 2.4-.4 3.1-.6 1.1-1.4 1.6-2.5 1.9-2.3.6-4.8-.8-5.4-3.1L672 301.7c-.3-1.1-.1-2.4.4-3.1.6-1.1 1.4-1.6 2.5-1.9 1.3-.7 2.3-.6 3.3 0z"/><path class="st0" d="M379.6 327.1c.8 1.5.9 4 .1 6.2-1.8 5.3-6.6 7.8-12 6-5-1.7-7.9-6.2-6-11.9.8-2.3 2.1-3.9 3.5-4.7l1.8 2.1c-1 .8-1.9 1.8-2.5 3.5-1.1 3.2.4 6.5 4.2 7.7 3.6 1.2 6.9-.4 8.1-4 .5-1.5.5-3.1 0-4.6l2.8-.3zm-2.7-12.2l-1.9 4.7 8.3 3.5-1.2 2.8-10.9-4.6 4.3-10.2 10.9 4.6-1.2 2.8-8.3-3.6zm1-7.1c-.1-1.2.1-2.9.8-4.2 1.5-3.1 3.7-3.4 6.5-2.1l6.5 3.2-1.2 2.4-1.2-.6c.5 1 .5 2.4-.2 3.8-1 1.9-2.8 2.7-4.9 1.7-2.3-1.2-2.6-3.4-1.5-5.6.5-.9 1.2-1.7 1.9-2.1-1.7-.9-2.9-.9-3.7.6-.6 1.2-.6 2.2-.6 3.1l-2.4-.2zm9.4-2.2l-1.1-.5c-.6.3-1.1.8-1.4 1.6-.4.9-.4 1.9.5 2.3.8.4 1.6 0 2-.9.5-1.1.3-1.9 0-2.5zm9.3-13.4c.7 1.5.4 3.4-.6 5.1-1.9 3.3-5.3 4.3-8.6 2.5-3-1.7-4.1-5.3-2.3-8.4 1-1.7 2.2-2.9 3.8-3.3l1.4 2.4c-1.2.3-1.9 1-2.5 2-.8 1.5-.5 3.5 1.3 4.5s3.7.3 4.6-1.3c.6-1.1.6-2.3.3-3.4l2.6-.1zm2.6-.9l-9.8-6.6 1.7-2.5 6.2 4.2-3.1-8.8 1.7-2.5 9.8 6.6-1.7 2.5-6.2-4.2 3.1 8.8-1.7 2.5zm2.2-30.2c.5 2.4-1.2 3.5-1.7 6-.5 1.8.5 3.4 1.8 4.7-.5-1.4-.2-3.3.9-4.6 2-2.5 5.1-2.8 7.9-.6 2.6 2.1 3.2 5.7.9 8.6-2.5 3.1-6.3 3.2-9.8.3-3-2.4-5.7-5.7-4.6-9.4.8-2.7 2.1-3.5 1.8-5.3l2.8.3zm7.5 12.4c1.2-1.5.8-3.3-.6-4.3-1.4-1.1-3.1-1.2-4.3.3-1.1 1.3-1 2.9-.3 3.9 2 1.4 4 1.6 5.2.1zm2.6-17.5c2.7-2.8 6.4-2.8 8.9-.3s2.7 6.1 0 8.9c-2.7 2.8-6.4 2.8-8.9.3-2.5-2.4-2.7-6.1 0-8.9zm7 6.6c1.3-1.3 1.3-3.3-.2-4.7-1.4-1.4-3.4-1.3-4.7 0-1.2 1.3-1.3 3.2.2 4.6 1.4 1.5 3.4 1.5 4.7.1zm10.1-8.6v-2.4c1 .2 2.6-.3 3.5-1 1.2-1 1.5-2 1-2.6-.5-.6-1.3-.6-2.2.1l-1.7 1.4-1.3-1.6 1.6-1.3c.8-.6.8-1.5.3-2.1-.5-.6-1.4-.5-2.4.3-1.1.9-1.5 2.1-1.7 3.1l-2.1-.6c0-1.7 1-3.3 2.7-4.7 2.4-2 4.5-1.9 5.8-.3.7.9.7 2.2-.1 3.4 1.5-.8 2.8-.5 3.7.6 1.4 1.7.6 4.1-1.9 6.1-1.6 1.2-3.8 1.9-5.2 1.6zm5.3-16c.5-1.1 1.5-2.4 2.8-3.3 2.9-1.9 4.9-1.2 6.7 1.4l4 6-2.2 1.5-.8-1.1c0 1.1-.7 2.3-2 3.2-1.8 1.2-3.8 1-5.1-.9-1.5-2.2-.5-4.3 1.4-5.6.9-.6 1.9-.9 2.6-.9-1-1.7-2.1-2.3-3.5-1.3-1.1.8-1.6 1.6-2.1 2.4l-1.8-1.4zm9.2 2.9l-.7-1c-.7 0-1.3.2-2 .7-.8.6-1.3 1.4-.7 2.3.5.7 1.4.7 2.2.2 1-.8 1.2-1.6 1.2-2.2zm6-13.4c.9-.5 2.5-1.4 4.1-2.2 3.1-1.5 5.2-1.5 6.2.4.6 1.3.2 2.6-.8 3.3 1.7-.4 2.9.1 3.5 1.3 1 2.1 0 4-3.4 5.7-1.3.7-3.3 1.5-4.3 2l-5.3-10.5zm3.8.8l1.2 2.3 1.8-.9c.9-.4 1.4-1.2 1-2-.4-.8-1.3-.8-2.3-.3-.7.3-1.5.7-1.7.9zm1.9 4l1.2 2.4c.4-.2 1.2-.5 1.8-.8 1.2-.6 1.7-1.4 1.3-2.2-.4-.8-1.3-.9-2.6-.2l-1.7.8zm17.1-6.9l-4.8 1.8 1.6 4.2-2.8 1.1-4.2-11 2.8-1.1 1.6 4.2 4.8-1.8-1.6-4.2 2.8-1.1 4.2 11.1-2.8 1.1-1.6-4.3zm7.2 2.3l-3-11.4 2.9-.8 1.9 7.2 3.4-8.6 2.9-.8 3 11.4-2.9.8-1.9-7.2-3.4 8.6-2.9.8zm12.2-15.3l2.7-.4 4.7 4.2 3-5.5 2.6-.4 1.8 11.7-3 .5-1.1-7.1-2.8 4.9h-.1l-4.2-3.8 1.1 7.1-3 .5-1.7-11.7zm17.2-1.6c1-.7 2.5-1.3 4.1-1.4 3.5-.2 4.8 1.5 5.1 4.6l.5 7.2-2.6.2-.1-1.4c-.6.9-1.8 1.7-3.4 1.8-2.1.2-3.8-1.1-3.9-3.4-.2-2.6 1.6-4 4-4.1 1-.1 2.1.2 2.7.6-.1-2-.7-3-2.4-2.9-1.4.1-2.2.6-3 1l-1-2.2zm6.6 7.1l-.1-1.2c-.6-.4-1.2-.5-2.1-.4-1 .1-1.9.6-1.8 1.6.1.9.8 1.3 1.8 1.3 1.3-.2 1.9-.8 2.2-1.3zm14.1-1.4H524v4.5h-3v-11.8h3v4.5h5.2v-4.5h3V221h-3v-4.5zm6 4.7l.9-11.8 3 .2-.6 7.5 6.1-7 3 .2-.9 11.8-3-.2.6-7.5-6.1 7-3-.2zm24.8 1.5c-1.3.8-3 1.1-4.7.8-3.8-.5-5.9-3.3-5.4-7 .5-3.4 3.2-5.8 7.1-5.3 3 .4 5.2 2.9 4.8 6.2-.1.7-.2 1.2-.4 1.6l-8.4-1.2c0 1.8 1.3 3 3.1 3.2 1.4.2 2.7-.1 3.5-.6l.4 2.3zm-7-6.9l5.7.8c.2-1.4-.6-2.7-2.3-2.9-1.7-.3-2.8.6-3.4 2.1z"/></svg>