<svg id="Layer_1" xmlns="http://www.w3.org/2000/svg" viewBox="0 0 352.1 107.1"><style>.st0{fill:#131214}</style><path class="st0" d="M32.3 35.3c0-.4.2-.6.5-.8.3-.2.9-.3 1.7-.3.1 0 .4.1.9.2s1 .3 1.6.4c.6.1 1.1.3 1.6.4.5.1.8.2.9.2 2-.1 3.8-.5 5.2-1.3s2.7-1.8 3.6-3c1-1.2 1.7-2.6 2.1-4.2.5-1.6.7-3.2.7-4.9 0-2.2-.4-4.3-1.1-6.4-.7-2.1-1.8-3.9-3.2-5.4-1.4-1.6-3.1-2.8-5.2-3.8-2.1-.9-4.4-1.4-7-1.4-2.7 0-5.2.5-7.4 1.4-2.2.9-4.1 2.2-5.7 3.8-1.6 1.6-2.8 3.6-3.6 5.8-.9 2.2-1.3 4.7-1.3 7.4 0 2.6.5 5 1.4 7.1.9 2.1 2.1 4 3.6 5.7 1.5 1.7 3.2 3.3 5.1 4.8 1.9 1.5 3.9 3 5.9 4.4 2 1.4 3.9 2.9 5.9 4.3 1.9 1.5 3.6 3.1 5.1 4.8 1.5 1.7 2.7 3.6 3.6 5.6.9 2.1 1.4 4.4 1.4 6.9 0 2.6-.4 5.1-1.2 7.5S45.4 79 44 81s-3.2 3.8-5.1 5.3c-2 1.6-4.1 2.9-6.3 4-2.3 1.1-4.6 2-7.1 2.5s-4.9.9-7.3.9c-1.1 0-2.3-.1-3.6-.2-1.3-.1-2.6-.4-4-.7-1.3-.3-2.6-.8-3.9-1.3-1.3-.5-2.4-1.2-3.3-2-1-.8-1.7-1.7-2.3-2.8-.8-.9-1.1-2.1-1.1-3.5 0-1.7.2-3 .7-3.7.5-.8 1.4-1.1 2.9-1.1.7 0 1.2.3 1.7.8s1 1.2 1.5 2 1.1 1.6 1.8 2.5c.7.9 1.5 1.7 2.6 2.5 1 .8 2.3 1.4 3.9 2 1.5.5 3.5.8 5.7.8 2.6 0 5.1-.4 7.4-1.2 2.3-.8 4.3-2 6-3.5 1.7-1.5 3-3.4 4-5.5 1-2.2 1.5-4.7 1.5-7.4 0-2.5-.4-4.8-1.3-6.8s-2-3.9-3.5-5.6c-1.4-1.7-3.1-3.3-4.9-4.8-1.8-1.5-3.7-3-5.6-4.5-1.9-1.5-3.8-3-5.6-4.5-1.8-1.5-3.5-3.2-4.9-5.1-1.4-1.8-2.6-3.8-3.5-6s-1.3-4.7-1.3-7.4c0-2.5.4-4.9 1.1-7.2s1.8-4.4 3.1-6.4 2.9-3.7 4.7-5.3c1.8-1.6 3.8-2.9 5.9-4.1 2.1-1.1 4.4-2 6.8-2.6 2-.8 4.5-1.1 6.9-1.1 2.7 0 5.3.5 7.8 1.4 2.5.9 4.7 2.2 6.6 3.9 1.9 1.7 3.5 3.7 4.6 6 1.2 2.3 1.7 4.9 1.7 7.8 0 2.8-.5 5.4-1.6 7.7-1.1 2.4-2.5 4.4-4.3 6.1s-3.9 3-6.3 4-4.9 1.4-7.5 1.4h-1.9c-.4 0-.7 0-1.1-.1-.3 0-.6-.1-.9-.1-.7-.2-1.2-.6-1.8-1.2-.4-.6-.6-1.2-.6-1.6zm57.8 24.8c-.6 0-1.1 0-1.6-.1s-1-.2-1.4-.3c-.4 2.6-1.2 5.3-2.3 8.1-1.1 2.7-2.5 5.2-4.1 7.5s-3.6 4.1-5.8 5.5c-2.2 1.4-4.7 2.1-7.3 2.1-4.2 0-7.4-1-9.4-2.9s-3.1-5.1-3.1-9.5c0-2.1.2-4.1.7-6.1.5-2 1.2-4 2.1-5.8.9-1.9 2-3.6 3.3-5.2 1.3-1.6 2.8-3 4.4-4.2 1.6-1.2 3.4-2.1 5.2-2.8 1.9-.7 3.9-1 6-1h2c.1-.3.1-.6.2-.9 0-.3.1-.6.3-.9.2-.4.5-.7.9-1.1.4-.4.8-.7 1.3-1 .5-.3 1-.6 1.4-.8s.9-.3 1.4-.3c.5 0 1 .2 1.3.5.4.4.6 1 .6 1.9-.6 1.7-.9 3.4-.9 5 0 2 .5 3.8 1.5 5.4 1 1.6 2.7 2.8 4.9 3.5.9.4 1.4.9 1.4 1.4 0 .6-.5 1.1-1.4 1.8-.5.1-1.1.2-1.6.2zm-26.1 6c0 1 .1 2.2.2 3.4.1 1.2.4 2.4.8 3.4.4 1.1 1 1.9 1.8 2.7.8.7 1.8 1.1 3.1 1.1 1.1 0 2.2-.3 3.2-.9 1-.6 2-1.4 2.9-2.5.9-1 1.8-2.2 2.6-3.6.8-1.3 1.5-2.7 2.1-4.2.6-1.5 1.1-2.9 1.5-4.4s.7-2.8.8-4.1c-1.1-1.1-1.9-2.3-2.6-3.7-.7-1.4-1.1-2.8-1.3-4.3-.2-.1-.5-.1-.7-.1h-.7c-1.4 0-2.7.3-3.9.8-1.2.5-2.3 1.2-3.3 2.1-1 .9-1.9 1.9-2.7 3.1-.8 1.2-1.4 2.4-2 3.7-.5 1.3-1 2.6-1.2 3.9s-.6 2.4-.6 3.6z"/><path class="st0" d="M91.8 43.8c1.2.3 2.5.6 3.8.9 1.3.3 2.5.5 3.8.7.9-4.9 1.9-9.5 3-13.6s2.4-7.7 4-10.7c1.5-3 3.3-5.3 5.3-7 2-1.7 4.4-2.5 7.1-2.5 1.6 0 2.7.3 3.4.8s1 1.2 1 1.9c0 .5-.2 1.1-.5 1.6-.4.6-.8 1-1.4 1.5-.6.4-1.3.8-2.1 1.1-.8.3-1.7.4-2.7.4-.4 0-.8 0-1.2-.1-.4-.1-.8-.2-1.3-.3-.5 2.1-1.1 4.3-1.6 6.4-.6 2.1-1.1 4.3-1.7 6.5-.6 2.2-1.1 4.5-1.6 6.9-.5 2.4-1 5-1.4 7.7h.4c1.4 0 2.8 0 4.2-.1 1.4-.1 2.8-.3 4.2-.6l.4 2.3c0 .4-.3.9-.9 1.4-.6.5-1.4 1.1-2.4 1.6s-2.1 1.1-3.4 1.6c-1.3.5-2.5.9-3.8 1.2-.7 4.3-1.4 8.6-2.2 12.9-.7 4.3-1.6 8.5-2.4 12.5s-1.8 7.7-2.9 11.1c-1.1 3.4-2.3 6.4-3.6 9-1.4 2.6-2.9 4.6-4.6 6-1.7 1.4-3.6 2.2-5.7 2.2v-2.2c1.3-1.6 2.4-3.5 3.3-5.7 1-2.3 1.8-4.8 2.6-7.5.8-2.8 1.4-5.7 2.1-8.8.6-3.1 1.2-6.3 1.7-9.6s1.1-6.6 1.6-10c.5-3.4 1.1-6.6 1.7-9.9-1.1-.3-2.1-.7-3.2-1.3-1-.5-2-1.1-2.8-1.7-.8-.6-1.4-1.2-2-1.8-.5-.6-.8-1.1-.8-1.6 0-.6.2-1.2.7-1.7.6-.5 1.1-1 1.9-1.5zm27.8-.1c.8.3 1.7.5 2.5.8.8.2 1.7.5 2.5.7.8-2.9 1.7-5.7 2.5-8.4.8-2.8 1.6-5.3 2.4-7.5.7-2.3 1.4-4.2 2-5.9.6-1.7 1.1-2.8 1.4-3.6.2-.8.6-1.4 1.2-1.6.7-.3 1.4-.4 2.1-.4 1.1 0 1.9.1 2.4.3.5.2 1 .6 1.5 1.4-.2.7-.6 1.9-1.1 3.7-.6 1.8-1.2 3.8-2 6.3-.8 2.4-1.6 5.1-2.5 7.9l-2.7 8.7c.9 0 1.9-.1 2.9-.2s1.9-.3 2.9-.6l.3 2.2c0 .4-.2.8-.7 1.4-.5.5-1.1 1-1.9 1.6s-1.7 1-2.6 1.5c-1 .5-1.9.9-2.9 1.1-.6 1.9-1.1 3.7-1.5 5.5-.5 1.7-.9 3.3-1.2 4.8-.3 1.4-.6 2.7-.8 3.8-.2 1.1-.3 1.9-.3 2.6 0 .8.1 1.6.2 2.3.1.7.4 1.4.7 2 .4.6.9 1 1.5 1.4s1.5.5 2.5.5c.4-.1.7-.2 1.1-.2 1.2 0 2 .7 2.3 2.2 0 .5-.3 1-.9 1.5-.6.6-1.3 1.1-2.2 1.6-.9.5-1.8.9-2.9 1.3-1 .3-2 .5-3 .5-1.4 0-2.6-.2-3.5-.7-.9-.4-1.7-1-2.3-1.8s-1-1.7-1.3-2.8c-.3-1.1-.4-2.2-.4-3.5 0-.9.1-2.1.4-3.5.2-1.5.6-3.2 1-5.1s.9-4 1.5-6.2 1.2-4.6 1.9-7c-.7-.4-1.3-.8-1.9-1.2-.6-.5-1.1-.9-1.6-1.4-.5-.5-.8-1-1.1-1.4-.3-.5-.4-.9-.4-1.3 0-.6.2-1.1.5-1.6s1-1.3 1.5-1.7zm50.9-8.4c0-.4.2-.6.5-.8.3-.2.9-.3 1.7-.3.1 0 .4.1.9.2s1 .3 1.6.4c.6.1 1.1.3 1.6.4.5.1.8.2.9.2 2-.1 3.8-.5 5.2-1.3s2.7-1.8 3.6-3c1-1.2 1.7-2.6 2.1-4.2.5-1.6.7-3.2.7-4.9 0-2.2-.4-4.3-1.1-6.4-.7-2.1-1.8-3.9-3.2-5.4-1.4-1.6-3.1-2.8-5.2-3.8-2.1-.9-4.4-1.4-7-1.4-2.7 0-5.2.5-7.4 1.4-2.2.9-4.1 2.2-5.7 3.8-1.6 1.6-2.8 3.6-3.6 5.8-.9 2.2-1.3 4.7-1.3 7.4 0 2.6.5 5 1.4 7.1.9 2.1 2.1 4 3.6 5.7 1.5 1.7 3.2 3.3 5.1 4.8 1.9 1.5 3.9 3 5.9 4.4 2 1.4 3.9 2.9 5.9 4.3 1.9 1.5 3.6 3.1 5.1 4.8 1.5 1.7 2.7 3.6 3.6 5.6.9 2.1 1.4 4.4 1.4 6.9 0 2.6-.4 5.1-1.2 7.5s-2 4.5-3.4 6.5-3.2 3.8-5.1 5.3c-2 1.6-4.1 2.9-6.3 4-2.3 1.1-4.6 2-7.1 2.5s-4.9.9-7.3.9c-1.1 0-2.3-.1-3.6-.2-1.3-.1-2.6-.4-4-.7-1.3-.3-2.6-.8-3.9-1.3-1.3-.5-2.4-1.2-3.3-2-1-.8-1.7-1.7-2.3-2.8-.6-1.1-.9-2.3-.9-3.6 0-1.7.2-3 .7-3.7.5-.8 1.4-1.1 2.9-1.1.7 0 1.2.3 1.7.8s1 1.2 1.5 2 1.1 1.6 1.8 2.5c.7.9 1.5 1.7 2.6 2.5 1 .8 2.3 1.4 3.9 2 1.5.5 3.5.8 5.7.8 2.6 0 5.1-.4 7.4-1.2 2.3-.8 4.3-2 6-3.5 1.7-1.5 3-3.4 4-5.5 1-2.2 1.5-4.7 1.5-7.4 0-2.5-.4-4.8-1.3-6.8s-2-3.9-3.5-5.6c-1.4-1.7-3.1-3.3-4.9-4.8-1.8-1.5-3.7-3-5.6-4.5-1.9-1.5-3.8-3-5.6-4.5-1.8-1.5-3.5-3.2-4.9-5.1-1.4-1.8-2.6-3.8-3.5-6s-1.3-4.7-1.3-7.4c0-2.5.4-4.9 1.1-7.2s1.8-4.4 3.1-6.4 2.9-3.7 4.7-5.3c1.8-1.6 3.8-2.9 5.9-4.1 2.1-1.1 4.4-2 6.8-2.6 2.4-.6 4.8-.9 7.2-.9 2.7 0 5.3.5 7.8 1.4 2.5.9 4.7 2.2 6.6 3.9 1.9 1.7 3.5 3.7 4.6 6 1.2 2.3 1.7 4.9 1.7 7.8 0 2.8-.5 5.4-1.6 7.7-1.1 2.4-2.5 4.4-4.3 6.1s-3.9 3-6.3 4-4.9 1.4-7.5 1.4h-1.9c-.4 0-.7 0-1.1-.1-.3 0-.6-.1-.9-.1-.7-.2-1.2-.6-1.8-1.2-.8-.7-1.1-1.3-1.1-1.7zm61.6 39.1c0-1.2.1-2.4.2-3.8s.3-2.7.5-4.2c.2-1.4.5-2.9.7-4.3.3-1.5.6-2.9 1-4.3-.3-.7-.7-1.1-1.2-1.1-.3 0-.6.1-.9.4-.3.3-.6.6-1 1.1-.8 1.6-1.5 3.3-2.3 5.1-.7 1.8-1.5 3.6-2.3 5.3-.8 1.8-1.7 3.4-2.6 5-.9 1.6-2 3-3.1 4.2-1.2 1.2-2.5 2.2-3.9 2.9-1.4.7-3.1 1.1-4.9 1.1 0-.6.1-1.7.2-3.4s.3-3.7.7-6c.3-2.3.8-4.8 1.3-7.5.6-2.7 1.3-5.3 2.1-8-.2-.2-.5-.3-.7-.3-.3 0-.6.1-.9.4-.3.3-.6.6-1 1.1-.8 1.4-1.6 3-2.4 4.8-.8 1.8-1.7 3.6-2.5 5.4-.9 1.8-1.8 3.6-2.7 5.3-.9 1.7-1.9 3.3-2.8 4.6-1 1.3-2 2.4-3.1 3.2-1.1.8-2.1 1.2-3.2 1.2-1 0-1.9-.3-2.7-1-.8-.7-1.2-1.6-1.2-2.8 0-1.8.3-3.6.9-5.5.6-1.9 1.2-3.9 1.9-5.9.7-2 1.3-4 1.9-5.9.6-2 .9-3.8.9-5.6 0-1.9-.2-3.3-.5-4.2-.4-.9-.7-1.5-1.2-1.9-.4-.4-.8-.6-1.2-.6-.4 0-.5-.1-.5-.3 0-1.2.3-2.1.9-2.9.6-.8 1.4-1.4 2.3-1.8.9-.5 2-.8 3.1-1 1.1-.2 2.2-.4 3.3-.5.7 0 1.3.3 1.6.8.4.5.6 1.2.8 1.9.2.7.3 1.5.3 2.4 0 .8.1 1.5.1 2.1 0 2.9-.4 5.9-1.3 9.1-.9 3.2-1.9 6.4-3 9.5 1.2-1.2 2.4-2.5 3.5-4 1.1-1.4 2.1-2.9 3.1-4.5 1-1.5 2-3.1 2.9-4.7 1-1.6 2-3 3-4.4 1-1.4 2.1-2.6 3.2-3.8s2.4-2 3.7-2.8c.4-.3.8-.4 1.1-.4.6 0 1.1.3 1.6.8s.9 1.1 1.1 1.7c-.7 1.2-1.2 2.4-1.6 3.7-.4 1.3-.7 2.5-1 3.8-.2 1.3-.4 2.6-.5 3.9-.1 1.3-.1 2.6-.1 4v3.7c1.4-1.8 2.7-3.7 3.8-5.7 1.2-2 2.4-4 3.6-5.9 1.3-1.9 2.6-3.7 4.2-5.4 1.5-1.7 3.3-3.1 5.4-4.2v.1c.6-.3 1.2-.5 1.7-.6.6-.2 1-.2 1.4-.2.5 0 .9.2 1.1.5.2.4.3.9.3 1.5 0 .8-.1 1.8-.4 3-.3 1.2-.6 2.5-1 4-.4 1.4-.8 2.9-1.3 4.5s-.9 3.1-1.3 4.6c-.4 1.5-.7 3-1 4.4-.3 1.4-.4 2.7-.4 3.9 0 .8.1 1.6.2 2.3.1.7.4 1.4.7 2 .4.6.9 1 1.5 1.4s1.5.5 2.5.5c.4-.1.7-.2 1.1-.2 1.2 0 2 .7 2.3 2.2 0 .5-.3 1-.9 1.5-.6.6-1.3 1.1-2.2 1.6-.9.5-1.8.9-2.9 1.3-1 .3-2 .5-3 .5-1.4 0-2.6-.2-3.5-.7-.9-.4-1.7-1-2.3-1.8s-1-1.7-1.3-2.8c.2-.9.1-2.1.1-3.4zM285 60.1c-.6 0-1.1 0-1.6-.1s-1-.2-1.4-.3c-.4 2.6-1.2 5.3-2.3 8.1-1.1 2.7-2.5 5.2-4.1 7.5s-3.6 4.1-5.8 5.5c-2.2 1.4-4.7 2.1-7.3 2.1-4.2 0-7.4-1-9.4-2.9s-3.1-5.1-3.1-9.5c0-2.1.2-4.1.7-6.1.5-2 1.2-4 2.1-5.8.9-1.9 2-3.6 3.3-5.2 1.3-1.6 2.8-3 4.4-4.2 1.6-1.2 3.4-2.1 5.2-2.8 1.9-.7 3.9-1 6-1h2c.1-.3.1-.6.2-.9 0-.3.1-.6.3-.9.2-.4.5-.7.9-1.1.4-.4.8-.7 1.3-1 .5-.3 1-.6 1.4-.8s.9-.3 1.4-.3c.5 0 1 .2 1.3.5.4.4.6 1 .6 1.9-.6 1.7-.9 3.4-.9 5 0 2 .5 3.8 1.5 5.4 1 1.6 2.7 2.8 4.9 3.5.9.4 1.4.9 1.4 1.4 0 .6-.5 1.1-1.4 1.8-.5.1-1 .2-1.6.2zm-26.1 6c0 1 .1 2.2.2 3.4.1 1.2.4 2.4.8 3.4.4 1.1 1 1.9 1.8 2.7.8.7 1.8 1.1 3.1 1.1 1.1 0 2.2-.3 3.2-.9 1-.6 2-1.4 2.9-2.5.9-1 1.8-2.2 2.6-3.6.8-1.3 1.5-2.7 2.1-4.2.6-1.5 1.1-2.9 1.5-4.4s.7-2.8.8-4.1c-1.1-1.1-1.9-2.3-2.6-3.7-.7-1.4-1.1-2.8-1.3-4.3-.2-.1-.5-.1-.7-.1h-.7c-1.4 0-2.7.3-3.9.8-1.2.5-2.3 1.2-3.3 2.1-1 .9-1.9 1.9-2.7 3.1-.8 1.2-1.4 2.4-2 3.7-.5 1.3-1 2.6-1.2 3.9s-.6 2.4-.6 3.6z"/><path class="st0" d="M287.2 82.7c-.4-1.2-.7-2.5-.9-4-.2-1.5-.3-3.1-.3-4.8 0-2.9.2-6 .7-9.4.5-3.4 1.2-6.9 2-10.5.9-3.6 1.9-7.2 3.1-10.9 1.2-3.6 2.5-7.2 4-10.5 1.4-3.4 3-6.5 4.7-9.4s3.4-5.5 5.2-7.6c1.8-2.2 3.6-3.9 5.4-5.1 1.8-1.3 3.6-1.9 5.4-1.9 1 0 1.8.2 2.4.6.6.4 1.1 1 1.4 1.6.3.6.5 1.3.6 2.1.1.8.1 1.5.1 2.2 0 1.7-.4 3.6-1.2 5.6-.8 2-1.9 4.2-3.2 6.4-1.3 2.2-2.8 4.5-4.5 6.7-1.7 2.3-3.4 4.5-5.1 6.6-1.7 2.1-3.4 4.1-5 6-1.6 1.9-3 3.5-4.1 5l-2.1 9.8c.1.1.2.1.3.1 1.3-1.2 2.6-2.6 3.9-4 1.3-1.4 2.5-2.9 3.7-4.3 1.2-1.4 2.4-2.8 3.5-4.1 1.1-1.3 2.1-2.5 3.1-3.5.9-1 1.8-1.8 2.5-2.4.7-.6 1.4-.9 1.9-.9.7 0 1.3.2 1.8.5.6.3 1 .7 1.4 1.2.4.5.7 1.1.9 1.7.2.6.3 1.2.3 1.9s-.5 1.7-1.6 2.9c-1.1 1.3-2.5 2.7-4.2 4.2-1.7 1.5-3.7 3.1-5.9 4.8-2.2 1.7-4.4 3.3-6.7 4.9 1.3 1.2 2.5 2.7 3.7 4.2 1.2 1.6 2.3 3.1 3.6 4.5s2.5 2.6 4 3.6c1.4 1 3.1 1.4 4.9 1.4h1c.8 0 1.4.2 1.8.5.4.3.5.8.5 1.3s-.1 1-.3 1.5c-.2.5-.5 1.1-.9 1.6-1 .6-2 .9-2.9 1.2-.9.2-1.8.3-2.7.3-1.3 0-2.5-.3-3.7-.8-1.2-.5-2.3-1.2-3.4-2s-2.2-1.8-3.2-2.8c-1.1-1.1-2.1-2.1-3.1-3.3s-2-2.2-3-3.3c-1-1.1-2-2-3-2.9l-1.7 8-.9 2.9-4.2 2.6zm25.3-63.5c0-1.3-.4-2-1.3-2-.5 0-1 .5-1.7 1.4-.7.9-1.4 2.2-2.1 3.7-.7 1.5-1.5 3.3-2.3 5.3-.8 2-1.5 4-2.2 6.1-.7 2.1-1.4 4.1-1.9 6.2-.6 2-1 3.9-1.4 5.5.9-1 1.8-2.2 2.8-3.7 1-1.4 2-3 2.9-4.6.9-1.7 1.9-3.4 2.7-5.1.9-1.7 1.6-3.4 2.3-5 .7-1.6 1.2-3.1 1.6-4.5s.6-2.4.6-3.3zm39.6 28.6c0 1.1-.4 2.3-1.1 3.6-.7 1.3-1.7 2.7-2.9 4.2-1.2 1.4-2.6 2.9-4.1 4.3-1.5 1.4-3.1 2.8-4.6 4.2-1.6 1.4-3.1 2.6-4.6 3.8-1.5 1.2-2.8 2.2-3.9 3 .1.8.3 1.5.5 2.2.2.7.6 1.3 1 1.9.4.5.9 1 1.5 1.3.6.3 1.4.5 2.2.5 1.1 0 2.1-.3 3.2-1 1-.7 2-1.4 3-2.2.9-.8 1.8-1.5 2.7-2.2.8-.7 1.6-1 2.3-1 .5 0 .8.2.9.5.2.3.2.8.2 1.3 0 .4-.2.9-.6 1.6-.4.7-1 1.4-1.7 2.2-.7.8-1.6 1.6-2.5 2.4-1 .8-2 1.6-3.1 2.2-1.1.7-2.3 1.2-3.4 1.6-1.2.4-2.4.6-3.5.6-2.2 0-4.1-.3-5.5-.9-1.5-.6-2.7-1.4-3.6-2.6-.9-1.1-1.5-2.5-1.9-4.1s-.6-3.5-.6-5.5c0-2.2.3-4.4.9-6.5.6-2.2 1.4-4.2 2.5-6.2s2.4-3.9 3.9-5.6c1.5-1.7 3.1-3.2 4.9-4.5 1.8-1.3 3.7-2.2 5.7-3s4.1-1.1 6.2-1.1c1.1 0 2 .2 2.9.7 1.4.4 2.3 1 2.7 1.7.2.8.4 1.6.4 2.6zm-9.9.1c-.9 0-1.9.3-2.8.9-.9.6-1.8 1.4-2.7 2.4-.8 1-1.6 2.1-2.3 3.4-.7 1.3-1.4 2.6-1.9 4s-1 2.7-1.3 4c-.3 1.3-.5 2.5-.5 3.5.7-.6 1.4-1.2 2.3-2.1.9-.8 1.8-1.7 2.7-2.8.9-1 1.8-2.1 2.8-3.2.9-1.1 1.7-2.2 2.5-3.3.7-1.1 1.3-2.1 1.8-3.1.4-1 .7-1.9.7-2.7 0-.6-.5-1-1.3-1z"/></svg>