<svg id="Layer_1" xmlns="http://www.w3.org/2000/svg" viewBox="0 0 35.4 69.7"><style>.st0{fill:#000}</style><path class="st0" d="M35.4 17.3C35.4 7.8 27.7 0 18.1 0h-.8C7.8 0 0 7.8 0 17.3V32c0 9.6 7.8 17.3 17.3 17.3h.8c9.6 0 17.3-7.8 17.3-17.3V17.3zM32.5 32c0 4-1.6 7.6-4.2 10.2-2.6 2.6-6.2 4.2-10.2 4.2h-.8c-4 0-7.6-1.6-10.2-4.2C4.5 39.6 2.9 36 2.9 32V17.3c0-4 1.6-7.6 4.2-10.2 2.6-2.6 6.2-4.2 10.2-4.2h.8c4 0 7.6 1.6 10.2 4.2 2.6 2.6 4.2 6.2 4.2 10.2V32z"/><path class="st0" d="M17.7 14.6c-.8 0-1.5.7-1.5 1.5v4.3c0 .8.7 1.5 1.5 1.5s1.5-.7 1.5-1.5V16c-.1-.8-.7-1.4-1.5-1.4zM16.8 69.4c.5.4 1.3.4 1.8 0l7.3-5.8c.6-.5.7-1.4.2-2-.5-.6-1.4-.7-2-.2l-6.4 5.1-6.4-5.1c-.6-.5-1.5-.4-2 .2-.5.6-.4 1.5.2 2l7.3 5.8z"/></svg>